inDegrees=yes
name=ik_S47_A09_T02
DataType=double
version=3
OpenSimVersion=4.3-2021-08-27-4bc7ad9
endheader
time	pelvis_tilt	pelvis_list	pelvis_rotation	pelvis_tx	pelvis_ty	pelvis_tz	hip_flexion_r	hip_adduction_r	hip_rotation_r	knee_angle_r	knee_angle_r_beta	ankle_angle_r	subtalar_angle_r	mtp_angle_r	hip_flexion_l	hip_adduction_l	hip_rotation_l	knee_angle_l	knee_angle_l_beta	ankle_angle_l	subtalar_angle_l	mtp_angle_l	lumbar_extension	lumbar_bending	lumbar_rotation	arm_flex_r	arm_add_r	arm_rot_r	elbow_flex_r	pro_sup_r	wrist_flex_r	wrist_dev_r	arm_flex_l	arm_add_l	arm_rot_l	elbow_flex_l	pro_sup_l	wrist_flex_l	wrist_dev_l
5.459999999999972	-13.40741043712924	-6.557070880851492	31.1579657947731	0	0.9399999999999999	0	44.13752680871603	-9.936878084009413	-10.03793742091709	55.45201062315249	0.9678201622248834	0	0	0	44.13752680871603	-9.936878084009413	-10.03793742091709	55.45201062315249	0.9678201622248834	0	0	0	-13.62915153413517	-1.040952910266331	0.08989791637395135	74.31880005280092	-12.89638204012319	29.43271265527567	59.90315806908448	96.08649338477117	0	0	71.74997525757772	-10.49698934438912	4.546155182676001	49.37044483492983	91.35912030940391	0	0
5.479999999999971	-13.40530988250187	-6.575176108596764	31.33089946979726	0	0.9399999999999999	0	44.13797060138632	-9.936990805332009	-10.03789387088033	55.45185404474959	0.9678174294162154	0	0	0	44.13797060138632	-9.936990805332009	-10.03789387088033	55.45185404474959	0.9678174294162154	0	0	0	-13.64772860128282	-1.037138306637637	0.03285045371550321	74.20080500590119	-13.00978799891401	29.56524610937337	59.98456809379238	95.91801234800548	0	0	72.98835807585115	-10.73505926965093	5.402592889591601	47.02876126450278	92.22816065785739	0	0
5.499999999999971	-13.4066013734522	-6.607955036968684	31.33124174571358	0	0.9399999999999999	0	44.13824662376476	-9.937060348758116	-10.03786692451705	55.4517559998514	0.9678157182099272	0	0	0	44.13824662376476	-9.937060348758116	-10.03786692451705	55.4517559998514	0.9678157182099272	0	0	0	-13.6588413930862	-1.085275091190555	0.1094289446710213	74.08949814783298	-13.06781412969077	29.4631810816087	60.05930306915504	95.87653627134614	0	-5.38806921148701e-36	73.4479234099815	-10.7252765868315	6.22161186050981	45.24443358746753	92.48422869581371	0	-5.38806921148701e-36
5.51999999999997	-13.40446812896629	-6.600393706976639	31.31291892025834	0	0.9399999999999999	0	44.13857820127999	-9.937144341176776	-10.03783443271615	55.45163892422057	0.9678136748546954	0	0	0	44.13857820127999	-9.937144341176776	-10.03783443271615	55.45163892422057	0.9678136748546954	0	0	0	-13.64911470577665	-1.096125239553022	0.1721305130015769	74.10842722961277	-13.13057773992107	29.27848768064803	60.077335728139	95.95906187360497	0	0	74.13038851676467	-10.92021166742074	7.104371097453951	43.38092873790676	92.1243015278789	0	0
5.53999999999997	-13.42921549437675	-6.600579652874041	31.24086022949703	0	0.9399999999999999	0	44.13898265962298	-9.937246908204001	-10.03779476170624	55.45149641566413	0.9678111876111732	0	0	0	44.13898265962298	-9.937246908204001	-10.03779476170624	55.45149641566413	0.9678111876111732	0	0	0	-13.66515523339538	-1.101850571039445	0.2431258170100412	74.1935906874134	-13.17812148448198	29.07037395822646	60.03830926198106	96.08959365854439	0	0	74.84062091154361	-11.04108555632478	7.835836573039499	41.56823234114088	91.69562480577169	0	0
5.559999999999969	-13.4798212089271	-6.609981524894341	31.13942972808292	0	0.9399999999999999	0	44.13922417913186	-9.937308286783869	-10.03777103705444	55.45141151935717	0.9678097058910938	0	0	0	44.13922417913186	-9.937308286783869	-10.03777103705444	55.45141151935717	0.9678097058910938	0	0	0	-13.71194233819815	-1.090915103182168	0.2739616604446583	74.34025692563773	-13.18104534810248	28.98477812190589	60.02582015674722	96.12880827632823	0	0	75.42665768309182	-10.98448408902744	8.30370855522183	41.17447350476692	91.34648293957777	0	0
5.579999999999969	-13.49060999034368	-6.597542869338119	31.00859197939016	0	0.9399999999999999	0	44.13967293108623	-9.937419405352296	-10.0377277016082	55.45125001245533	0.9678068870638922	0	0	0	44.13967293108623	-9.937419405352296	-10.0377277016082	55.45125001245533	0.9678068870638922	0	0	0	-13.70772154623803	-1.102877616920499	0.3664526742308396	74.33587551663271	-13.18618147213406	28.95958414783802	60.04531489747198	96.15076269622374	0	0	76.02540074955365	-10.89903506319563	8.45941528915789	39.30408461784486	91.16316247480444	0	0
5.599999999999969	-13.49452120836381	-6.572146239697903	30.8075857816115	0	0.9399999999999999	0	44.13991398641785	-9.937479560980599	-10.03770429732361	55.45116398308292	0.9678053855680901	0	0	0	44.13991398641785	-9.937479560980599	-10.03770429732361	55.45116398308292	0.9678053855680901	0	0	0	-13.69434369726997	-1.096127534740145	0.4227430191832058	74.30272834426285	-13.11981429456999	29.09654987250267	60.03369261280509	96.11321332231594	0	0	76.95678741998894	-10.87543746530956	8.814399801153076	37.5112543908899	90.59876144202489	0	0
5.619999999999968	-13.50358486650578	-6.555746269721429	30.62757939290946	0	0.9399999999999999	0	44.14024788353763	-9.937562229601456	-10.03767204275363	55.45104403825854	0.967803292135984	0	0	0	44.14024788353763	-9.937562229601456	-10.03767204275363	55.45104403825854	0.967803292135984	0	0	0	-13.68569422696672	-1.102537744849249	0.5053123205116924	74.29756385020777	-13.07972618493605	29.24346568275252	60.0026266522333	96.10879876280487	0	0	77.31898635585075	-10.85298495515541	8.969973264106249	36.41889837364297	90.07377291607952	0	0
5.639999999999968	-13.52887973893353	-6.557218699236126	30.37234052486989	0	0.9399999999999999	0	44.14056342340381	-9.937639685629977	-10.03764172839207	55.45092989168501	0.967801299902446	0	0	0	44.14056342340381	-9.937639685629977	-10.03764172839207	55.45092989168501	0.967801299902446	0	0	0	-13.69518350679299	-1.123053377999343	0.6072447586037589	74.33584326784369	-12.9901329146194	29.43161362074122	59.99974352944834	96.12363483534725	0	0	77.67835700958902	-10.85306700108953	9.099581391869288	35.13339742149606	89.09497122389068	0	0
5.659999999999967	-13.53459819361779	-6.554366057718984	30.24763100471369	0	0.9399999999999999	0	44.14092856933269	-9.937732099222126	-10.03760593084867	55.45080152327743	0.9677990594510784	0	0	0	44.14092856933269	-9.937732099222126	-10.03760593084867	55.45080152327743	0.9677990594510784	0	0	0	-13.69929264951742	-1.116988710212364	0.6082284581305394	74.33810810397897	-12.94715577643142	29.55946849073005	60.0085766511178	96.11031178715103	0	0	77.95889655945645	-10.80590954329117	9.318079421896391	34.46259471233063	89.28566231564527	0	0
5.679999999999967	-13.51748345087454	-6.559169532195226	30.14708927716923	0	0.9399999999999999	0	44.14122254340776	-9.93780652432479	-10.03757710015397	55.45069828460372	0.9677972575963067	0	0	0	44.14122254340776	-9.93780652432479	-10.03757710015397	55.45069828460372	0.9677972575963067	0	0	0	-13.68769403055315	-1.127260495869308	0.5999532977601516	74.30408568649533	-12.91140032963409	29.63346245225437	60.00166235295919	96.08884205808575	0	0	78.07179084048252	-10.7605049635715	9.584384111683947	34.05151723510924	89.48941967381228	0	0
5.699999999999966	-13.5261440589138	-6.564004065839309	30.06300925229046	0	0.9399999999999999	0	44.1414771413833	-9.937870993183298	-10.03755212473249	55.45060894715393	0.9677956983636625	0	0	0	44.1414771413833	-9.937870993183298	-10.03755212473249	55.45060894715393	0.9677956983636625	0	0	0	-13.6991181385903	-1.122909045871939	0.587866068697847	74.34987754666686	-12.92042668655755	29.7148058991793	59.97604140658544	96.10022215420818	0	0	78.15253088833589	-10.65160445492874	9.733526337014599	33.75154728417782	89.23140201140014	0	0
5.719999999999966	-13.52232549747525	-6.572871187600119	29.98854416265297	0	0.9399999999999999	0	44.14171040395123	-9.93792993458249	-10.03752927154317	55.45052698140632	0.9677942677914928	0	0	0	44.14171040395123	-9.93792993458249	-10.03752927154317	55.45052698140632	0.9677942677914928	0	0	0	-13.70083917366981	-1.130517250688595	0.5807824985751375	74.36565546391182	-12.89948874127219	29.73702673833497	59.93443099905418	96.13495129020686	0	0	78.2478461762864	-10.5300601005907	9.81467981091787	33.39606464439547	88.91483976647646	0	0
